<svg width="10" height="20" viewBox="0 0 10 20" fill="none" xmlns="http://www.w3.org/2000/svg">
<path d="M7.94005 19.3334C7.74086 19.3341 7.54405 19.2901 7.36408 19.2047C7.1841 19.1193 7.02555 18.9947 6.90005 18.84L0.460056 10.84C0.263947 10.6015 0.156738 10.3022 0.156738 9.99338C0.156738 9.68454 0.263947 9.38529 0.460056 9.14671L7.12672 1.14671C7.35304 0.87442 7.67825 0.703187 8.03082 0.670681C8.38339 0.638175 8.73443 0.747057 9.00672 0.973375C9.27901 1.19969 9.45024 1.52491 9.48275 1.87748C9.51525 2.23005 9.40637 2.58109 9.18005 2.85338L3.22005 10L8.98005 17.1467C9.1431 17.3424 9.24667 17.5807 9.27851 17.8335C9.31035 18.0862 9.26912 18.3428 9.15972 18.5728C9.05031 18.8028 8.87729 18.9967 8.66115 19.1315C8.445 19.2663 8.19477 19.3364 7.94005 19.3334Z" fill="white"/>
</svg>
