<svg width="40" height="40" viewBox="0 0 40 40" fill="none" xmlns="http://www.w3.org/2000/svg">
<path d="M20.0017 1.66675C11.4437 1.66675 6.12167 4.48675 6.41167 6.77675L9.29567 33.7107C9.41167 34.6307 13.7377 37.6627 20.0017 37.6667C26.2637 37.6627 30.5917 34.6307 30.7037 33.7087L33.5877 6.77475C33.8777 4.48675 28.5597 1.66675 20.0017 1.66675ZM20.0017 10.2487C13.7377 10.2447 9.29567 8.01475 9.29567 7.17875C9.29367 6.35075 13.7397 4.11675 20.0017 4.12075C26.2637 4.11675 30.7097 6.35075 30.7037 7.17875C30.7037 8.01475 26.2637 10.2447 20.0017 10.2487V10.2487Z" fill="white"/>
<line x1="16" y1="24" x2="24" y2="24" stroke="#0377A6" stroke-width="2" stroke-linecap="round"/>
<line x1="20" y1="28" x2="20" y2="20" stroke="#0377A6" stroke-width="2" stroke-linecap="round"/>
</svg>
