<svg width="18" height="18" viewBox="0 0 18 18" fill="none" xmlns="http://www.w3.org/2000/svg">
<path d="M17.1249 16.2411L12.4049 11.5211C13.5391 10.1595 14.1047 8.41291 13.9841 6.64483C13.8634 4.87675 13.0657 3.22326 11.7569 2.02834C10.4482 0.833415 8.7291 0.189061 6.95736 0.229318C5.18562 0.269575 3.49761 0.991344 2.24448 2.24448C0.991344 3.49761 0.269575 5.18562 0.229318 6.95736C0.189061 8.7291 0.833415 10.4482 2.02834 11.7569C3.22326 13.0657 4.87675 13.8634 6.64483 13.9841C8.41291 14.1047 10.1595 13.5391 11.5211 12.4049L16.2411 17.1249L17.1249 16.2411ZM1.49989 7.12489C1.49989 6.01237 1.82979 4.92483 2.44787 3.99981C3.06596 3.07478 3.94446 2.35381 4.97229 1.92807C6.00013 1.50232 7.13113 1.39093 8.22227 1.60797C9.31341 1.82501 10.3157 2.36074 11.1024 3.14741C11.889 3.93408 12.4248 4.93636 12.6418 6.02751C12.8588 7.11865 12.7475 8.24965 12.3217 9.27748C11.896 10.3053 11.175 11.1838 10.25 11.8019C9.32495 12.42 8.23741 12.7499 7.12489 12.7499C5.63355 12.7482 4.20377 12.1551 3.14924 11.1005C2.09471 10.046 1.50154 8.61622 1.49989 7.12489Z" fill="#74808C"/>
</svg>
