<svg width="10" height="12" viewBox="0 0 10 12" fill="none" xmlns="http://www.w3.org/2000/svg">
<path fill-rule="evenodd" clip-rule="evenodd" d="M8 5.25C8.39782 5.25 8.77936 5.40804 9.06066 5.68934C9.34196 5.97064 9.5 6.35218 9.5 6.75V9.75C9.5 10.1478 9.34196 10.5294 9.06066 10.8107C8.77936 11.092 8.39782 11.25 8 11.25H2C1.60218 11.25 1.22064 11.092 0.93934 10.8107C0.658035 10.5294 0.5 10.1478 0.5 9.75V6.75C0.5 6.35218 0.658035 5.97064 0.93934 5.68934C1.22064 5.40804 1.60218 5.25 2 5.25V3.75C2 2.95435 2.31607 2.19129 2.87868 1.62868C3.44129 1.06607 4.20435 0.75 5 0.75C5.79565 0.75 6.55871 1.06607 7.12132 1.62868C7.68393 2.19129 8 2.95435 8 3.75V5.25ZM5 1.75C5.53043 1.75 6.03914 1.96071 6.41421 2.33579C6.78929 2.71086 7 3.21957 7 3.75V5.25H3V3.75C3 3.21957 3.21071 2.71086 3.58579 2.33579C3.96086 1.96071 4.46957 1.75 5 1.75ZM8 6.25H2C1.86739 6.25 1.74021 6.30268 1.64645 6.39645C1.55268 6.49021 1.5 6.61739 1.5 6.75V9.75C1.5 9.88261 1.55268 10.0098 1.64645 10.1036C1.74021 10.1973 1.86739 10.25 2 10.25H8C8.13261 10.25 8.25979 10.1973 8.35355 10.1036C8.44732 10.0098 8.5 9.88261 8.5 9.75V6.75C8.5 6.61739 8.44732 6.49021 8.35355 6.39645C8.25979 6.30268 8.13261 6.25 8 6.25Z" fill="#0377A6"/>
</svg>
