<svg width="10" height="11" viewBox="0 0 10 11" fill="none" xmlns="http://www.w3.org/2000/svg">
<path fill-rule="evenodd" clip-rule="evenodd" d="M8.5 3.5H7.5C7.5 2.96957 7.28929 2.46086 6.91421 2.08579C6.53914 1.71071 6.03043 1.5 5.5 1.5C4.96957 1.5 4.46086 1.71071 4.08579 2.08579C3.71071 2.46086 3.5 2.96957 3.5 3.5V5H8C8.39782 5 8.77936 5.15804 9.06066 5.43934C9.34196 5.72064 9.5 6.10218 9.5 6.5V9.5C9.5 9.89782 9.34196 10.2794 9.06066 10.5607C8.77936 10.842 8.39782 11 8 11H2C1.60218 11 1.22064 10.842 0.93934 10.5607C0.658035 10.2794 0.5 9.89782 0.5 9.5V6.5C0.5 6.10218 0.658035 5.72064 0.93934 5.43934C1.22064 5.15804 1.60218 5 2 5H2.5V3.5C2.5 2.70435 2.81607 1.94129 3.37868 1.37868C3.94129 0.81607 4.70435 0.5 5.5 0.5C6.29565 0.5 7.05871 0.81607 7.62132 1.37868C8.18393 1.94129 8.5 2.70435 8.5 3.5V3.5ZM8 6H2C1.86739 6 1.74021 6.05268 1.64645 6.14645C1.55268 6.24021 1.5 6.36739 1.5 6.5V9.5C1.5 9.63261 1.55268 9.75979 1.64645 9.85355C1.74021 9.94732 1.86739 10 2 10H8C8.13261 10 8.25979 9.94732 8.35355 9.85355C8.44732 9.75979 8.5 9.63261 8.5 9.5V6.5C8.5 6.36739 8.44732 6.24021 8.35355 6.14645C8.25979 6.05268 8.13261 6 8 6Z" fill="#0377A6"/>
</svg>
