<svg width="52" height="52" viewBox="0 0 52 52" fill="none" xmlns="http://www.w3.org/2000/svg">
<path d="M26 48.75C19.9663 48.75 14.1798 46.3531 9.91332 42.0867C5.64687 37.8202 3.25 32.0337 3.25 26C3.25 19.9663 5.64687 14.1798 9.91332 9.91332C14.1798 5.64687 19.9663 3.25 26 3.25C32.0337 3.25 37.8202 5.64687 42.0867 9.91332C46.3531 14.1798 48.75 19.9663 48.75 26C48.75 32.0337 46.3531 37.8202 42.0867 42.0867C37.8202 46.3531 32.0337 48.75 26 48.75ZM26 52C32.8956 52 39.5088 49.2607 44.3848 44.3848C49.2607 39.5088 52 32.8956 52 26C52 19.1044 49.2607 12.4912 44.3848 7.61522C39.5088 2.73928 32.8956 0 26 0C19.1044 0 12.4912 2.73928 7.61522 7.61522C2.73928 12.4912 0 19.1044 0 26C0 32.8956 2.73928 39.5088 7.61522 44.3848C12.4912 49.2607 19.1044 52 26 52Z" fill="white"/>
<path d="M20.3808 16.4288C20.6465 16.292 20.945 16.2311 21.2431 16.2529C21.5413 16.2746 21.8277 16.3783 22.0708 16.5523L33.4458 24.6773C33.6564 24.8276 33.8281 25.0261 33.9466 25.2562C34.065 25.4862 34.1268 25.7413 34.1268 26.0001C34.1268 26.2589 34.065 26.5139 33.9466 26.744C33.8281 26.9741 33.6564 27.1725 33.4458 27.3228L22.0708 35.4478C21.8278 35.6217 21.5415 35.7253 21.2435 35.7471C20.9455 35.7689 20.6472 35.7081 20.3815 35.5713C20.1158 35.4346 19.893 35.2273 19.7374 34.9721C19.5819 34.717 19.4998 34.4239 19.5 34.1251V17.8751C19.4997 17.5763 19.5817 17.2833 19.7371 17.0282C19.8925 16.773 20.1152 16.5656 20.3808 16.4288Z" fill="white"/>
</svg>
