<svg width="14" height="14" viewBox="0 0 14 14" fill="none" xmlns="http://www.w3.org/2000/svg">
<path d="M13.5363 9.85709C13.5203 9.68231 13.505 9.51759 13.5161 9.39312C13.6148 8.29347 13.2943 7.30209 12.5895 6.52684C11.79 5.64725 10.5295 5.12203 9.21814 5.12203C7.39202 5.12203 5.86142 6.07884 5.12358 7.68163C5.12183 7.68578 5.11964 7.68994 5.11811 7.69409C4.94858 7.07 4.77752 6.63688 4.64058 6.28972C4.40914 5.70259 4.28489 5.38781 4.38442 4.69744C4.56505 4.67779 4.73445 4.60011 4.8672 4.47606C4.89017 4.47759 4.91402 4.47869 4.93808 4.47869C5.18636 4.47869 5.40161 4.38462 5.55714 4.21706L5.57639 4.21728C5.88548 4.21728 6.14864 4.08363 6.32386 3.84781C6.7513 3.81194 7.04661 3.55425 7.10502 3.15722C7.18377 2.62434 6.99739 1.13291 6.59467 0.663469C6.43498 0.476875 6.25867 0.4375 6.13923 0.4375C5.45783 0.4375 4.39208 0.594781 3.48733 0.828625C1.83839 1.25475 1.5807 1.68503 1.5398 2.0125C1.37245 3.36372 1.12439 4.56903 0.905204 5.63259C0.594579 7.13934 0.34936 8.32956 0.467922 9.26538C0.514079 9.63047 0.606172 9.94372 0.694985 10.2463C0.80611 10.6238 0.920516 11.0143 0.959235 11.5483C1.01239 12.2905 1.81389 12.7162 3.15833 12.7162C3.6853 12.7162 4.22277 12.6475 4.66377 12.5252C5.20452 12.7842 6.98886 13.5625 8.89461 13.5625C9.54998 13.5625 10.1605 13.4689 10.71 13.2843C13.5216 12.3379 13.6478 11.0723 13.5363 9.85709ZM0.902141 9.21003C0.712704 7.71531 1.57305 5.30578 1.97423 2.06697C2.04227 1.519 4.53645 0.945437 5.90845 0.883531C5.85267 0.928375 5.81264 0.987219 5.80739 1.04978C5.97189 0.975187 6.21755 0.951125 6.33808 1.197C6.34442 1.15588 6.34705 1.11934 6.34705 1.08522C6.41005 1.20859 6.46758 1.37681 6.51614 1.56844C6.57717 1.84406 6.6113 2.12669 6.61195 2.41041C6.61239 2.6075 6.65527 3.31012 6.33086 3.21869C6.13092 3.16225 6.12589 2.97784 6.0688 2.78797C5.98086 2.49112 5.82598 2.149 5.8448 1.83356C5.76845 2.14309 5.85923 2.51453 5.89292 2.82756C5.91217 3.00978 6.03817 3.50219 5.81505 3.56934C5.69167 3.60719 5.54861 3.52034 5.44645 3.45669C5.40752 3.43219 5.37842 3.25303 5.3642 3.20272C5.27627 2.89516 5.11877 2.54144 5.13889 2.21834C5.06189 2.50972 5.13692 2.86081 5.16142 3.15941C5.17652 3.34447 5.26992 3.74566 5.06123 3.83884C4.82498 3.96244 4.78867 3.66275 4.74492 3.50569C4.66377 3.21409 4.53186 2.89516 4.53536 2.58934C4.45289 2.96187 4.5498 3.39806 4.56577 3.77956C4.5743 3.969 4.17727 4.14006 4.02917 4.02106C3.79708 3.83447 3.75792 3.39762 3.73167 3.11522C3.80123 3.21016 3.90099 3.33288 4.02764 3.32041C3.92002 3.19769 3.8743 2.98725 3.80233 2.83806C3.73627 2.71556 3.60217 2.42397 3.44445 2.41916C3.46873 2.47144 3.60173 2.83172 3.58117 2.86978C3.51708 2.989 3.45473 3.11019 3.38342 3.22438C3.32283 3.32041 3.14695 3.62644 3.00498 3.53391C2.85164 3.43459 2.75539 2.98988 2.75539 2.98988C2.75539 2.98988 2.76108 3.54441 2.95927 3.67281C3.14695 3.79488 3.36089 3.60238 3.48514 3.465C3.50986 3.72859 3.58117 4.03769 3.74064 4.24156C3.27208 6.31947 4.13461 6.29869 4.71605 9.07638C4.71605 9.07638 5.0993 8.51134 5.43442 7.78356C6.1657 6.195 7.69105 5.48712 9.16148 5.48712C10.6197 5.48712 12.1811 6.23262 12.7485 7.5215C12.936 7.94719 12.9826 8.456 12.9319 9.01644C12.849 9.92928 13.7498 11.4144 10.3895 12.5302C7.7232 13.4155 4.4437 11.718 4.4437 11.718C3.5442 12.012 1.4407 12.1404 1.3963 11.5174C1.32302 10.4969 0.999047 9.97741 0.902141 9.21003Z" fill="white"/>
<path d="M7.49106 11.7185C8.07665 11.9333 8.713 11.9917 9.32681 11.9186C9.94106 11.8442 10.5422 11.6436 11.0659 11.3055C11.3257 11.1353 11.5675 10.9305 11.7619 10.6849C11.952 10.4383 12.106 10.1535 12.1417 9.85142C11.7637 10.3139 11.2829 10.5685 10.7874 10.7708C10.2893 10.9677 9.7654 11.0904 9.23734 11.1536C8.70884 11.2147 8.17531 11.2153 7.64681 11.1333C7.09542 11.0475 6.5639 10.8634 6.0775 10.5899C6.37587 11.1154 6.90962 11.5041 7.49106 11.7185ZM5.59253 1.49845C5.68528 0.89711 5.08241 1.09508 5.06141 1.35145C5.22591 1.27664 5.472 1.2528 5.59253 1.49845ZM4.99644 1.83095C5.08941 1.22939 4.48675 1.42692 4.46575 1.68417C4.63025 1.6087 4.87612 1.58508 4.99644 1.83095ZM4.30803 2.17811C4.401 1.57677 3.79834 1.77452 3.77734 2.03133C3.94206 1.95586 4.1875 1.93245 4.30803 2.17811Z" fill="white"/>
</svg>
