<svg width="28" height="36" viewBox="0 0 28 36" fill="none" xmlns="http://www.w3.org/2000/svg">
<path d="M27.4001 17.5999C25.6001 15.6999 23.2001 14.3999 20.7001 13.8999C19.6001 13.5999 18.5001 13.3999 17.4001 13.2999C20.2001 9.99989 19.7001 4.99989 16.4001 2.19989C13.1001 -0.600106 8.10007 -0.100106 5.30007 3.19989C2.50007 6.49989 3.00007 11.4999 6.30007 14.2999C6.90007 14.7999 7.50007 15.1999 8.10007 15.3999V17.5999L6.50007 16.0999C5.10007 14.6999 2.80007 14.6999 1.30007 16.0999C-0.0999311 17.4999 -0.199932 19.6999 1.20007 21.0999L5.80007 26.4999C6.00007 27.8999 6.50007 29.1999 7.20007 30.3999C7.70007 31.2999 8.40007 32.1999 9.10007 32.8999V34.7999C9.10007 35.3999 9.50007 35.7999 10.1001 35.7999H23.7001C24.2001 35.7999 24.7001 35.2999 24.7001 34.7999V32.1999C26.6001 29.8999 27.6001 26.9999 27.6001 24.0999V18.2999C27.7001 17.8999 27.6001 17.6999 27.4001 17.5999ZM5.40007 8.19989C5.40007 4.89989 8.10007 2.29989 11.4001 2.39989C14.7001 2.39989 17.3001 5.09989 17.2001 8.39989C17.2001 10.1999 16.4001 11.7999 15.0001 12.8999V7.89989C14.949 7.03327 14.5684 6.219 13.9362 5.62401C13.304 5.02902 12.4682 4.69839 11.6001 4.69989C9.80007 4.59989 8.20007 6.09989 8.20007 7.89989V13.0999C6.50007 12.0999 5.50007 10.1999 5.40007 8.19989ZM25.7001 23.9999C25.8001 26.5999 24.9001 29.0999 23.2001 31.0999C23.0001 31.2999 22.8001 31.4999 22.8001 31.7999V33.8999H11.2001V32.4999C11.2001 32.1999 11.0001 31.8999 10.8001 31.6999C10.1001 31.0999 9.50007 30.3999 9.00007 29.4999C8.40007 28.4999 8.00007 27.2999 7.80007 26.0999C7.80007 25.8999 7.70007 25.6999 7.60007 25.4999L2.80007 19.7999C2.50007 19.4999 2.30007 19.0999 2.30007 18.5999C2.30007 18.1999 2.50007 17.6999 2.80007 17.3999C3.50007 16.7999 4.50007 16.7999 5.20007 17.3999L8.10007 20.2999V23.2999L10.0001 22.2999V7.89989C10.1001 7.19989 10.7001 6.59989 11.5001 6.69989C12.2001 6.69989 12.9001 7.19989 12.9001 7.89989V19.3999L14.9001 19.7999V15.1999C15.0001 15.0999 15.1001 15.0999 15.2001 14.9999C15.9001 14.9999 16.6001 15.0999 17.3001 15.1999V20.2999L18.9001 20.5999V15.3999L20.1001 15.6999C20.6001 15.7999 21.1001 15.9999 21.6001 16.1999V21.1999L23.2001 21.4999V16.8999C24.1001 17.2999 24.9001 17.8999 25.6001 18.5999L25.7001 23.9999Z" fill="white"/>
</svg>
