<svg width="17" height="22" viewBox="0 0 17 22" fill="none" xmlns="http://www.w3.org/2000/svg">
<path fill-rule="evenodd" clip-rule="evenodd" d="M12 7.47562C12 5.68051 13.0511 4.13089 14.5714 3.40867V12.6829H12V7.47562ZM11.4503 14.6829H12.7314L12.2298 18.2987C12.03 19.7393 13.1491 21.0244 14.6035 21.0244C15.9271 21.0244 17 19.9515 17 18.6279V18.5985V18.5535L16.996 18.5087L16.5714 13.8005V1.48781H16.5V0.975616C12.9101 0.975616 10 3.88577 10 7.47562V13.2327C10 14.0336 10.6493 14.6829 11.4503 14.6829ZM14.6853 15.1533L14.2109 18.5735C14.1778 18.8118 14.3629 19.0244 14.6035 19.0244C14.8181 19.0244 14.9928 18.854 14.9998 18.6411L14.6853 15.1533ZM2 2C2 1.44772 1.55228 1 1 1C0.447715 1 0 1.44772 0 2V8C0 9.49522 1.09386 10.7349 2.525 10.9626L2.0028 17.9252L2 17.9626V18V18.5C2 19.8807 3.11929 21 4.5 21C5.88071 21 7 19.8807 7 18.5V18V17.9626L6.9972 17.9252L6.475 10.9626C7.90614 10.7349 9 9.49522 9 8V2C9 1.44772 8.55228 1 8 1C7.44772 1 7 1.44772 7 2V8C7 8.55228 6.55228 9 6 9H5.5V2C5.5 1.44772 5.05228 1 4.5 1C3.94772 1 3.5 1.44772 3.5 2V9H3C2.44772 9 2 8.55228 2 8V2ZM4 18.0374L4.5 11.3708L5 18.0374V18.5C5 18.7761 4.77614 19 4.5 19C4.22386 19 4 18.7761 4 18.5V18.0374Z" fill="#fff" fill-opacity="0.7"/>
<path d="M4.5 11.3708L4 18.0374V18.5C4 18.7761 4.22386 19 4.5 19C4.77614 19 5 18.7761 5 18.5V18.0374L4.5 11.3708Z" fill="#fff" fill-opacity="0.7"/>
<path d="M14.2109 18.5735L14.6853 15.1533L14.9998 18.6411C14.9928 18.854 14.8181 19.0244 14.6035 19.0244C14.3629 19.0244 14.1778 18.8118 14.2109 18.5735Z" fill="#fff" fill-opacity="0.7"/>
<path d="M14.5714 3.40867C13.0511 4.13089 12 5.68051 12 7.47562V12.6829H14.5714V3.40867Z" fill="#fff" fill-opacity="0.7"/>
</svg>
