<svg width="18" height="18" viewBox="0 0 18 18" fill="none" xmlns="http://www.w3.org/2000/svg">
<path fill-rule="evenodd" clip-rule="evenodd" d="M6.15791 4.86485C6.15791 3.25278 7.43035 1.94594 9 1.94594C10.5696 1.94594 11.8421 3.25278 11.8421 4.86485C11.8421 6.47693 10.5696 7.78377 9 7.78377C7.43035 7.78377 6.15791 6.47693 6.15791 4.86485ZM9 0C6.38392 0 4.26318 2.17807 4.26318 4.86485C4.26318 7.55164 6.38392 9.72971 9 9.72971C11.6161 9.72971 13.7368 7.55164 13.7368 4.86485C13.7368 2.17807 11.6161 0 9 0ZM14.6094 11.2383C15.1823 11.0912 15.7452 11.5124 15.7844 12.1175C15.7844 12.1175 16.0725 16.5555 16.1073 17.0917C16.1393 17.5836 16.5218 17.9657 16.9879 17.9978C17.0299 18.0007 17.0725 18.0008 17.1156 17.9978C17.6377 17.9621 18.0327 17.4984 17.9979 16.9623L17.675 11.9881C17.5571 10.1727 15.8685 8.9092 14.1499 9.35047L9.22977 10.6137C9.07891 10.6525 8.92109 10.6525 8.77023 10.6137L3.85013 9.35047C2.13149 8.9092 0.442861 10.1727 0.32502 11.9881L0.00213425 16.9623C-0.0326694 17.4984 0.362327 17.9621 0.884383 17.9978C0.927492 18.0008 0.97012 18.0007 1.01207 17.9978C1.47815 17.9657 1.86074 17.5836 1.89267 17.0917C1.92747 16.5555 2.21555 12.1175 2.21555 12.1175C2.25483 11.5124 2.81771 11.0912 3.39059 11.2383L8.31069 12.5016C8.76327 12.6178 9.23673 12.6178 9.68931 12.5016L14.6094 11.2383Z" fill="#fff" fill-opacity="0.7"/>
<path d="M15.7844 12.1175C15.7452 11.5124 15.1823 11.0912 14.6094 11.2383L9.68931 12.5016C9.23673 12.6178 8.76327 12.6178 8.31069 12.5016L3.39059 11.2383C2.81771 11.0912 2.25483 11.5124 2.21555 12.1175L1.89267 17.0917H16.1073L15.7844 12.1175Z" fill="#fff" fill-opacity="0.7"/>
<path d="M16.9879 17.9978C16.5218 17.9657 16.1393 17.5836 16.1073 17.0917H1.89267C1.86074 17.5836 1.47815 17.9657 1.01207 17.9978H16.9879Z" fill="#fff" fill-opacity="0.7"/>
<path d="M9 1.94594C7.43035 1.94594 6.15791 3.25278 6.15791 4.86485C6.15791 6.47693 7.43035 7.78377 9 7.78377C10.5696 7.78377 11.8421 6.47693 11.8421 4.86485C11.8421 3.25278 10.5696 1.94594 9 1.94594Z" fill="#fff" fill-opacity="0.7"/>
</svg>
