<svg width="16" height="20" viewBox="0 0 16 20" fill="none" xmlns="http://www.w3.org/2000/svg">
<path d="M15.3204 9.05106C14.8792 8.07432 14.2378 7.19765 13.4363 6.4759L12.775 5.87905C12.7525 5.85934 12.7255 5.84535 12.6963 5.83831C12.667 5.83128 12.6365 5.83141 12.6073 5.83869C12.5782 5.84597 12.5512 5.86019 12.529 5.88009C12.5067 5.89998 12.4897 5.92496 12.4795 5.95282L12.1841 6.78661C12 7.3097 11.6614 7.84395 11.1818 8.36927C11.15 8.4028 11.1136 8.41174 11.0886 8.41398C11.0636 8.41621 11.025 8.41174 10.9909 8.38045C10.9591 8.35362 10.9432 8.31339 10.9454 8.27315C11.0295 6.92744 10.6204 5.40961 9.72499 3.75766C8.98408 2.38513 7.95454 1.31438 6.66817 0.567762L5.72954 0.0245628C5.60681 -0.0469697 5.44999 0.0469166 5.45681 0.187746L5.50681 1.26073C5.5409 1.99394 5.45454 2.6422 5.24999 3.18093C5 3.84037 4.6409 4.45287 4.18181 5.00277C3.86232 5.38494 3.5002 5.73062 3.10227 6.03329C2.14387 6.75793 1.36457 7.68643 0.822726 8.74929C0.282213 9.82141 0.000659456 11.0018 0 12.1985C0 13.2536 0.211363 14.2752 0.629545 15.2386C1.03333 16.1662 1.61604 17.0081 2.34545 17.7177C3.08182 18.433 3.93636 18.9963 4.88863 19.3875C5.87499 19.7943 6.92045 20 7.99999 20C9.07954 20 10.125 19.7943 11.1114 19.3897C12.0613 19.0008 12.9251 18.4337 13.6545 17.7199C14.3909 17.0046 14.9682 16.1685 15.3704 15.2409C15.788 14.28 16.0022 13.2456 16 12.2007C16 11.1099 15.7727 10.0503 15.3204 9.05106ZM12.5682 16.6357C11.3477 17.825 9.72726 18.4777 7.99999 18.4777C6.27272 18.4777 4.65227 17.825 3.43181 16.6357C2.21591 15.4487 1.54545 13.875 1.54545 12.2007C1.54545 11.2283 1.76818 10.2962 2.20682 9.42885C2.63409 8.58163 3.27045 7.82384 4.04318 7.2404C4.53599 6.86976 4.98297 6.44362 5.37499 5.9707C5.94318 5.2889 6.38863 4.52887 6.69772 3.71295C6.82451 3.37639 6.91664 3.02816 6.97272 2.6735C7.52045 3.16976 7.97954 3.76884 8.36363 4.47075C9.12272 5.8701 9.47272 7.11522 9.40454 8.17479C9.38825 8.42434 9.42968 8.67428 9.52573 8.90581C9.62178 9.13734 9.76994 9.34445 9.95908 9.51155C10.123 9.65718 10.3147 9.76932 10.523 9.84147C10.7314 9.91361 10.9522 9.94432 11.1727 9.93181C11.6204 9.90945 12.0318 9.71497 12.3318 9.38637C12.6341 9.0533 12.8954 8.71352 13.1136 8.36703C13.4318 8.76717 13.6977 9.20307 13.9091 9.6725C14.2704 10.4728 14.4545 11.3245 14.4545 12.2007C14.4545 13.875 13.7841 15.451 12.5682 16.6357Z" fill="#707070" fill-opacity="0.7"/>
<path d="M12.5682 16.6357C11.3477 17.825 9.72726 18.4777 7.99999 18.4777C6.27272 18.4777 4.65227 17.825 3.43181 16.6357C2.21591 15.4487 1.54545 13.875 1.54545 12.2007C1.54545 11.2283 1.76818 10.2962 2.20682 9.42885C2.63409 8.58163 3.27045 7.82384 4.04318 7.2404C4.53599 6.86976 4.98297 6.44362 5.37499 5.9707C5.94318 5.2889 6.38863 4.52887 6.69772 3.71295C6.82451 3.37639 6.91664 3.02816 6.97272 2.6735C7.52045 3.16976 7.97954 3.76884 8.36363 4.47075C9.12272 5.8701 9.47272 7.11522 9.40454 8.17479C9.38825 8.42434 9.42968 8.67428 9.52573 8.90581C9.62178 9.13734 9.76994 9.34445 9.95908 9.51155C10.123 9.65718 10.3147 9.76932 10.523 9.84147C10.7314 9.91361 10.9522 9.94432 11.1727 9.93181C11.6204 9.90945 12.0318 9.71497 12.3318 9.38637C12.6341 9.0533 12.8954 8.71352 13.1136 8.36703C13.4318 8.76717 13.6977 9.20307 13.9091 9.6725C14.2704 10.4728 14.4545 11.3245 14.4545 12.2007C14.4545 13.875 13.7841 15.451 12.5682 16.6357Z" fill="#707070" fill-opacity="0.7"/>
</svg>
