<svg width="21" height="20" viewBox="0 0 21 20" fill="none" xmlns="http://www.w3.org/2000/svg">
<g opacity="0.7">
<path fill-rule="evenodd" clip-rule="evenodd" d="M14.6502 3.025C14.6502 2.45891 15.1091 2 15.6752 2C16.2413 2 16.7002 2.45891 16.7002 3.025C16.7002 3.59109 16.2413 4.05 15.6752 4.05C15.1091 4.05 14.6502 3.59109 14.6502 3.025ZM15.6752 0C14.0046 0 12.6502 1.35434 12.6502 3.025C12.6502 4.69566 14.0046 6.05 15.6752 6.05C17.3459 6.05 18.7002 4.69566 18.7002 3.025C18.7002 1.35434 17.3459 0 15.6752 0ZM11.7135 5.69597C12.0702 5.27437 12.0176 4.64339 11.596 4.28664C11.1744 3.92989 10.5435 3.98246 10.1867 4.40406L6.62196 8.61681L6.62185 8.61695C6.0875 9.24865 5.8599 10.0843 6.00012 10.8998C6.14034 11.7152 6.63402 12.4269 7.34869 12.8438L7.34871 12.8438L9.93954 14.3552L6.99115 18.4121C6.66647 18.8589 6.76543 19.4843 7.2122 19.809C7.65896 20.1336 8.28434 20.0347 8.60903 19.5879L11.9128 15.042L11.9137 15.0407C12.1546 14.7103 12.2448 14.2935 12.162 13.8931C12.0791 13.4921 11.8306 13.1448 11.4778 12.9371L11.4742 12.935L8.35649 11.1163L8.35647 11.1162C8.15229 10.9971 8.01125 10.7938 7.97119 10.5608C7.93114 10.3279 7.99612 10.0892 8.14872 9.90872L8.14883 9.90859L11.7135 5.69597Z" fill="#707070"/>
<path d="M4.20001 6.4L5.82001 3.97C5.92776 3.80793 6.12748 3.73349 6.31501 3.7855L10.95 5.05L14.55 7.75L16.62 11.4738C16.7251 11.663 16.9501 11.7506 17.1555 11.6823L19.5 10.9" stroke="#707070" stroke-width="2" stroke-linecap="round" stroke-linejoin="round"/>
<path fill-rule="evenodd" clip-rule="evenodd" d="M15.3139 8.39553C15.6704 7.97373 15.6175 7.34278 15.1957 6.98626C14.7739 6.62974 14.143 6.68266 13.7864 7.10446L10.6364 10.8312C10.2799 11.253 10.3328 11.884 10.7546 12.2405C11.1764 12.597 11.8074 12.5441 12.1639 12.1223L15.3139 8.39553ZM6.76825 14.2402C7.12181 13.8159 7.06449 13.1854 6.64021 12.8318C6.21593 12.4782 5.58537 12.5356 5.2318 12.9598L0.731804 18.3598C0.37824 18.7841 0.435564 19.4147 0.859841 19.7682C1.28412 20.1218 1.91468 20.0645 2.26825 19.6402L6.76825 14.2402Z" fill="#707070"/>
</g>
</svg>
